; NON-PLATED HOLES START AT T1
; THROUGH (PLATED) HOLES START AT T100
M48
INCH
T100C0.030000
T101C0.015748
T102C0.041000
T103C0.150000
T104C0.040000
T105C0.035000
T106C0.038000
%
T100
X008949Y006333
X008949Y008333
X001947Y009333
X002949Y009333
T101
X012840Y016582
X016680Y008662
T102
X025949Y011333
X029949Y007333
X025949Y006333
X025949Y013333
X029949Y012333
X025949Y008333
T103
X004949Y016333
X030949Y002333
X001949Y016333
X027949Y002333
T104
X020949Y010433
X009949Y013433
X023949Y017433
X023949Y016333
X029949Y019433
X009949Y012333
X029949Y018333
X020949Y009333
T105
X006949Y007333
X004949Y007333
X015949Y010333
X015949Y009333
X015949Y011333
X005949Y007333
T106
X008949Y003333
X007949Y003333
T00
M30
