G04 MADE WITH FRITZING*
G04 WWW.FRITZING.ORG*
G04 DOUBLE SIDED*
G04 HOLES PLATED*
G04 CONTOUR ON CENTER OF CONTOUR VECTOR*
%ASAXBY*%
%FSLAX23Y23*%
%MOIN*%
%OFA0B0*%
%SFA1.0B1.0*%
%ADD10C,0.109000*%
%ADD11C,0.225000*%
%ADD12C,0.049370*%
%ADD13C,0.080000*%
%ADD14C,0.085000*%
%ADD15C,0.090000*%
%ADD16C,0.088000*%
%ADD17R,0.109000X0.109000*%
%ADD18R,0.069055X0.065118*%
%ADD19R,0.116299X0.080866*%
%ADD20R,0.080866X0.116299*%
%ADD21R,0.088000X0.088000*%
%LNMASK1*%
G90*
G70*
G54D10*
X2595Y633D03*
X2595Y833D03*
X2995Y733D03*
X2595Y1133D03*
X2595Y1333D03*
X2995Y1233D03*
G54D11*
X2795Y233D03*
X2795Y233D03*
X495Y1633D03*
X495Y1633D03*
X3095Y233D03*
X3095Y233D03*
X195Y1633D03*
X195Y1633D03*
G54D12*
X1284Y1658D03*
X1668Y866D03*
G54D13*
X195Y933D03*
X295Y933D03*
G54D14*
X495Y733D03*
X595Y733D03*
X695Y733D03*
G54D13*
X895Y833D03*
X895Y633D03*
G54D15*
X2095Y1043D03*
X2095Y933D03*
X2095Y1043D03*
X2095Y933D03*
X2995Y1943D03*
X2995Y1833D03*
X2995Y1943D03*
X2995Y1833D03*
X2395Y1743D03*
X2395Y1633D03*
X2395Y1743D03*
X2395Y1633D03*
X995Y1343D03*
X995Y1233D03*
X995Y1343D03*
X995Y1233D03*
G54D14*
X1595Y1133D03*
X1595Y1033D03*
X1595Y933D03*
G54D16*
X895Y333D03*
X795Y333D03*
G54D17*
X2595Y833D03*
X2595Y1333D03*
G54D18*
X595Y1233D03*
X595Y1153D03*
G54D19*
X1295Y1907D03*
X1295Y1733D03*
G54D20*
X1322Y1233D03*
X1495Y1233D03*
G54D19*
X1795Y2107D03*
X1795Y1933D03*
X1695Y707D03*
X1695Y533D03*
X1795Y1807D03*
X1795Y1633D03*
G54D21*
X895Y333D03*
G04 End of Mask1*
M02*