G04 MADE WITH FRITZING*
G04 WWW.FRITZING.ORG*
G04 DOUBLE SIDED*
G04 HOLES PLATED*
G04 CONTOUR ON CENTER OF CONTOUR VECTOR*
%ASAXBY*%
%FSLAX23Y23*%
%MOIN*%
%OFA0B0*%
%SFA1.0B1.0*%
%ADD10C,0.099000*%
%ADD11C,0.215000*%
%ADD12C,0.039370*%
%ADD13C,0.070000*%
%ADD14C,0.075000*%
%ADD15C,0.080000*%
%ADD16C,0.078000*%
%ADD17R,0.099000X0.099000*%
%ADD18R,0.059055X0.055118*%
%ADD19R,0.106299X0.070866*%
%ADD20R,0.070866X0.106299*%
%ADD21R,0.078000X0.078000*%
%ADD22C,0.024000*%
%LNCOPPER1*%
G90*
G70*
G54D10*
X2595Y633D03*
X2595Y833D03*
X2995Y733D03*
X2595Y1133D03*
X2595Y1333D03*
X2995Y1233D03*
G54D11*
X2795Y233D03*
X2795Y233D03*
X495Y1633D03*
X495Y1633D03*
X3095Y233D03*
X3095Y233D03*
X195Y1633D03*
X195Y1633D03*
G54D12*
X1284Y1658D03*
X1668Y866D03*
G54D13*
X195Y933D03*
X295Y933D03*
G54D14*
X495Y733D03*
X595Y733D03*
X695Y733D03*
G54D13*
X895Y833D03*
X895Y633D03*
G54D15*
X2095Y1043D03*
X2095Y933D03*
X2095Y1043D03*
X2095Y933D03*
X2995Y1943D03*
X2995Y1833D03*
X2995Y1943D03*
X2995Y1833D03*
X2395Y1743D03*
X2395Y1633D03*
X2395Y1743D03*
X2395Y1633D03*
X995Y1343D03*
X995Y1233D03*
X995Y1343D03*
X995Y1233D03*
G54D14*
X1595Y1133D03*
X1595Y1033D03*
X1595Y933D03*
G54D16*
X895Y333D03*
X795Y333D03*
G54D17*
X2595Y833D03*
X2595Y1333D03*
G54D18*
X595Y1233D03*
X595Y1153D03*
G54D19*
X1295Y1907D03*
X1295Y1733D03*
G54D20*
X1322Y1233D03*
X1495Y1233D03*
G54D19*
X1795Y2107D03*
X1795Y1933D03*
X1695Y707D03*
X1695Y533D03*
X1795Y1807D03*
X1795Y1633D03*
G54D21*
X895Y333D03*
G54D22*
X195Y1547D02*
X195Y959D01*
D02*
X1795Y1903D02*
X1795Y1836D01*
D02*
X2364Y1747D02*
X1843Y1802D01*
D02*
X1026Y1233D02*
X1292Y1233D01*
D02*
X1572Y1050D02*
X1352Y1211D01*
D02*
X571Y1216D02*
X552Y1202D01*
D02*
X1743Y734D02*
X2068Y918D01*
D02*
X372Y1022D02*
X312Y953D01*
D02*
X552Y1202D02*
X372Y1022D01*
D02*
X1668Y1178D02*
X1525Y1224D01*
D02*
X1668Y962D02*
X1668Y1178D01*
D02*
X1622Y944D02*
X1668Y962D01*
D02*
X1773Y1603D02*
X1525Y1273D01*
D02*
X2064Y1038D02*
X1668Y962D01*
D02*
X600Y1131D02*
X688Y761D01*
D02*
X967Y1330D02*
X619Y1164D01*
D02*
X1278Y1877D02*
X996Y1370D01*
D02*
X1755Y2077D02*
X1335Y1763D01*
D02*
X996Y1370D02*
X996Y1374D01*
D02*
X2964Y1948D02*
X1843Y2100D01*
D02*
X1287Y1677D02*
X1291Y1703D01*
D02*
X1743Y539D02*
X2564Y630D01*
D02*
X1620Y650D02*
X1676Y563D01*
D02*
X1620Y866D02*
X1620Y650D01*
D02*
X1649Y866D02*
X1620Y866D01*
D02*
X924Y341D02*
X1647Y521D01*
D02*
X515Y713D02*
X874Y355D01*
G04 End of Copper1*
M02*