G04 MADE WITH FRITZING*
G04 WWW.FRITZING.ORG*
G04 DOUBLE SIDED*
G04 HOLES PLATED*
G04 CONTOUR ON CENTER OF CONTOUR VECTOR*
%ASAXBY*%
%FSLAX23Y23*%
%MOIN*%
%OFA0B0*%
%SFA1.0B1.0*%
%ADD10C,0.080000*%
%ADD11C,0.105000*%
%ADD12C,0.159999*%
%ADD13C,0.061496*%
%ADD14C,0.072992*%
%ADD15C,0.085000*%
%ADD16C,0.049370*%
%ADD17R,0.105000X0.105000*%
%ADD18R,0.072992X0.072992*%
%ADD19R,0.001000X0.001000*%
%LNMASK0*%
G90*
G70*
G54D10*
X1644Y1533D03*
X1744Y733D03*
X944Y733D03*
X2444Y1533D03*
G54D11*
X795Y992D03*
G54D10*
X1344Y733D03*
X2144Y733D03*
X2044Y1533D03*
G54D12*
X794Y1483D03*
G54D10*
X1144Y733D03*
X1544Y733D03*
X1944Y733D03*
X2344Y733D03*
X2244Y1533D03*
X1844Y1533D03*
X1444Y1533D03*
G54D13*
X905Y1003D03*
G54D10*
X1044Y733D03*
X1244Y733D03*
X1444Y733D03*
X1644Y733D03*
X1844Y733D03*
X2044Y733D03*
X2244Y733D03*
X2444Y733D03*
X2344Y1533D03*
X2144Y1533D03*
X1944Y1533D03*
X1744Y1533D03*
X1544Y1533D03*
X1344Y1533D03*
G54D12*
X794Y783D03*
G54D13*
X905Y1263D03*
G54D11*
X795Y1275D03*
G54D14*
X1044Y1835D03*
X1044Y1933D03*
X2344Y1835D03*
X2344Y1933D03*
X2344Y235D03*
X2344Y333D03*
X1044Y235D03*
X1044Y333D03*
G54D15*
X544Y233D03*
X289Y233D03*
X544Y411D03*
X289Y411D03*
X3044Y233D03*
X2789Y233D03*
X3044Y411D03*
X2789Y411D03*
X3044Y1833D03*
X2789Y1833D03*
X3044Y2011D03*
X2789Y2011D03*
X544Y1833D03*
X289Y1833D03*
X544Y2011D03*
X289Y2011D03*
G54D16*
X2124Y986D03*
X1356Y650D03*
G54D17*
X795Y992D03*
X795Y1275D03*
G54D18*
X1044Y1835D03*
X2344Y1835D03*
X2344Y235D03*
X1044Y235D03*
G54D19*
X879Y1310D02*
X929Y1310D01*
X879Y1309D02*
X930Y1309D01*
X879Y1308D02*
X930Y1308D01*
X879Y1307D02*
X930Y1307D01*
X879Y1306D02*
X930Y1306D01*
X879Y1305D02*
X930Y1305D01*
X879Y1304D02*
X930Y1304D01*
X879Y1303D02*
X930Y1303D01*
X879Y1302D02*
X930Y1302D01*
X879Y1301D02*
X930Y1301D01*
X879Y1300D02*
X930Y1300D01*
X879Y1299D02*
X930Y1299D01*
X879Y1298D02*
X930Y1298D01*
X879Y1297D02*
X930Y1297D01*
X879Y1296D02*
X930Y1296D01*
X879Y1295D02*
X930Y1295D01*
X879Y1294D02*
X930Y1294D01*
X879Y1293D02*
X930Y1293D01*
X879Y1292D02*
X930Y1292D01*
X879Y1291D02*
X930Y1291D01*
X879Y1290D02*
X930Y1290D01*
X879Y1289D02*
X930Y1289D01*
X879Y1288D02*
X930Y1288D01*
X879Y1287D02*
X930Y1287D01*
X879Y1286D02*
X930Y1286D01*
X879Y1285D02*
X930Y1285D01*
X879Y1284D02*
X930Y1284D01*
X879Y1283D02*
X930Y1283D01*
X879Y1282D02*
X930Y1282D01*
X879Y1281D02*
X930Y1281D01*
X879Y1280D02*
X930Y1280D01*
X879Y1279D02*
X900Y1279D01*
X908Y1279D02*
X930Y1279D01*
X879Y1278D02*
X897Y1278D01*
X911Y1278D02*
X930Y1278D01*
X879Y1277D02*
X895Y1277D01*
X913Y1277D02*
X930Y1277D01*
X879Y1276D02*
X894Y1276D01*
X914Y1276D02*
X930Y1276D01*
X879Y1275D02*
X893Y1275D01*
X916Y1275D02*
X930Y1275D01*
X879Y1274D02*
X892Y1274D01*
X917Y1274D02*
X930Y1274D01*
X879Y1273D02*
X891Y1273D01*
X917Y1273D02*
X930Y1273D01*
X879Y1272D02*
X890Y1272D01*
X918Y1272D02*
X930Y1272D01*
X879Y1271D02*
X890Y1271D01*
X919Y1271D02*
X930Y1271D01*
X879Y1270D02*
X889Y1270D01*
X919Y1270D02*
X930Y1270D01*
X879Y1269D02*
X889Y1269D01*
X920Y1269D02*
X930Y1269D01*
X879Y1268D02*
X889Y1268D01*
X920Y1268D02*
X930Y1268D01*
X879Y1267D02*
X888Y1267D01*
X920Y1267D02*
X930Y1267D01*
X879Y1266D02*
X888Y1266D01*
X920Y1266D02*
X930Y1266D01*
X879Y1265D02*
X888Y1265D01*
X920Y1265D02*
X930Y1265D01*
X879Y1264D02*
X888Y1264D01*
X920Y1264D02*
X930Y1264D01*
X879Y1263D02*
X888Y1263D01*
X920Y1263D02*
X930Y1263D01*
X879Y1262D02*
X888Y1262D01*
X920Y1262D02*
X930Y1262D01*
X879Y1261D02*
X888Y1261D01*
X920Y1261D02*
X930Y1261D01*
X879Y1260D02*
X888Y1260D01*
X920Y1260D02*
X930Y1260D01*
X879Y1259D02*
X889Y1259D01*
X920Y1259D02*
X930Y1259D01*
X879Y1258D02*
X889Y1258D01*
X920Y1258D02*
X930Y1258D01*
X879Y1257D02*
X889Y1257D01*
X919Y1257D02*
X930Y1257D01*
X879Y1256D02*
X890Y1256D01*
X919Y1256D02*
X930Y1256D01*
X879Y1255D02*
X891Y1255D01*
X918Y1255D02*
X930Y1255D01*
X879Y1254D02*
X891Y1254D01*
X917Y1254D02*
X930Y1254D01*
X879Y1253D02*
X892Y1253D01*
X916Y1253D02*
X930Y1253D01*
X879Y1252D02*
X893Y1252D01*
X915Y1252D02*
X930Y1252D01*
X879Y1251D02*
X894Y1251D01*
X914Y1251D02*
X930Y1251D01*
X879Y1250D02*
X896Y1250D01*
X913Y1250D02*
X930Y1250D01*
X879Y1249D02*
X898Y1249D01*
X911Y1249D02*
X930Y1249D01*
X879Y1248D02*
X930Y1248D01*
X879Y1247D02*
X930Y1247D01*
X879Y1246D02*
X930Y1246D01*
X879Y1245D02*
X930Y1245D01*
X879Y1244D02*
X930Y1244D01*
X879Y1243D02*
X930Y1243D01*
X879Y1242D02*
X930Y1242D01*
X879Y1241D02*
X930Y1241D01*
X879Y1240D02*
X930Y1240D01*
X879Y1239D02*
X930Y1239D01*
X879Y1238D02*
X929Y1238D01*
X879Y1029D02*
X930Y1029D01*
X879Y1028D02*
X930Y1028D01*
X879Y1027D02*
X930Y1027D01*
X879Y1026D02*
X930Y1026D01*
X879Y1025D02*
X930Y1025D01*
X879Y1024D02*
X930Y1024D01*
X879Y1023D02*
X930Y1023D01*
X879Y1022D02*
X930Y1022D01*
X879Y1021D02*
X930Y1021D01*
X879Y1020D02*
X930Y1020D01*
X879Y1019D02*
X900Y1019D01*
X909Y1019D02*
X930Y1019D01*
X879Y1018D02*
X897Y1018D01*
X912Y1018D02*
X930Y1018D01*
X879Y1017D02*
X895Y1017D01*
X913Y1017D02*
X930Y1017D01*
X879Y1016D02*
X894Y1016D01*
X915Y1016D02*
X930Y1016D01*
X879Y1015D02*
X893Y1015D01*
X916Y1015D02*
X930Y1015D01*
X879Y1014D02*
X892Y1014D01*
X917Y1014D02*
X930Y1014D01*
X879Y1013D02*
X891Y1013D01*
X918Y1013D02*
X930Y1013D01*
X879Y1012D02*
X890Y1012D01*
X918Y1012D02*
X930Y1012D01*
X879Y1011D02*
X890Y1011D01*
X919Y1011D02*
X930Y1011D01*
X879Y1010D02*
X889Y1010D01*
X919Y1010D02*
X930Y1010D01*
X879Y1009D02*
X889Y1009D01*
X920Y1009D02*
X930Y1009D01*
X879Y1008D02*
X889Y1008D01*
X920Y1008D02*
X930Y1008D01*
X879Y1007D02*
X888Y1007D01*
X920Y1007D02*
X930Y1007D01*
X879Y1006D02*
X888Y1006D01*
X920Y1006D02*
X930Y1006D01*
X879Y1005D02*
X888Y1005D01*
X920Y1005D02*
X930Y1005D01*
X879Y1004D02*
X888Y1004D01*
X920Y1004D02*
X930Y1004D01*
X879Y1003D02*
X888Y1003D01*
X920Y1003D02*
X930Y1003D01*
X879Y1002D02*
X888Y1002D01*
X920Y1002D02*
X930Y1002D01*
X879Y1001D02*
X888Y1001D01*
X920Y1001D02*
X930Y1001D01*
X879Y1000D02*
X889Y1000D01*
X920Y1000D02*
X930Y1000D01*
X879Y999D02*
X889Y999D01*
X920Y999D02*
X930Y999D01*
X879Y998D02*
X889Y998D01*
X919Y998D02*
X930Y998D01*
X879Y997D02*
X890Y997D01*
X919Y997D02*
X930Y997D01*
X879Y996D02*
X890Y996D01*
X918Y996D02*
X930Y996D01*
X879Y995D02*
X891Y995D01*
X918Y995D02*
X930Y995D01*
X879Y994D02*
X892Y994D01*
X917Y994D02*
X930Y994D01*
X879Y993D02*
X892Y993D01*
X916Y993D02*
X930Y993D01*
X879Y992D02*
X893Y992D01*
X915Y992D02*
X930Y992D01*
X879Y991D02*
X895Y991D01*
X914Y991D02*
X930Y991D01*
X879Y990D02*
X896Y990D01*
X912Y990D02*
X930Y990D01*
X879Y989D02*
X898Y989D01*
X910Y989D02*
X930Y989D01*
X879Y988D02*
X930Y988D01*
X879Y987D02*
X930Y987D01*
X879Y986D02*
X930Y986D01*
X879Y985D02*
X930Y985D01*
X879Y984D02*
X930Y984D01*
X879Y983D02*
X930Y983D01*
X879Y982D02*
X930Y982D01*
X879Y981D02*
X930Y981D01*
X879Y980D02*
X930Y980D01*
X879Y979D02*
X930Y979D01*
X879Y978D02*
X930Y978D01*
X879Y977D02*
X930Y977D01*
X879Y976D02*
X930Y976D01*
X879Y975D02*
X930Y975D01*
X879Y974D02*
X930Y974D01*
X879Y973D02*
X930Y973D01*
X879Y972D02*
X930Y972D01*
X879Y971D02*
X930Y971D01*
X879Y970D02*
X930Y970D01*
X879Y969D02*
X930Y969D01*
X879Y968D02*
X930Y968D01*
X879Y967D02*
X930Y967D01*
X879Y966D02*
X930Y966D01*
X879Y965D02*
X930Y965D01*
X879Y964D02*
X930Y964D01*
X879Y963D02*
X930Y963D01*
X879Y962D02*
X930Y962D01*
X879Y961D02*
X930Y961D01*
X879Y960D02*
X930Y960D01*
X879Y959D02*
X930Y959D01*
X879Y958D02*
X930Y958D01*
D02*
G04 End of Mask0*
M02*