; NON-PLATED HOLES START AT T1
; THROUGH (PLATED) HOLES START AT T100
M48
INCH
T100C0.035433
T101C0.039370
T102C0.035000
T103C0.098425
T104C0.031497
T105C0.015748
T106C0.031496
%
T100
X007946Y012750
X007946Y009916
T101
X018444Y007333
X011444Y007333
X018444Y015333
X017444Y007333
X016444Y015333
X019444Y015333
X023444Y007333
X015444Y015333
X021444Y015333
X022444Y007333
X016444Y007333
X021444Y007333
X017444Y015333
X015444Y007333
X013444Y007333
X014444Y007333
X014444Y015333
X022444Y015333
X010444Y007333
X012444Y007333
X019444Y007333
X020444Y015333
X009444Y007333
X024444Y007333
X024444Y015333
X013444Y015333
X020444Y007333
X023444Y015333
T102
X027885Y020105
X005444Y020105
X005444Y004105
X030444Y018333
X005444Y002333
X002885Y004105
X002885Y020105
X030444Y020105
X030444Y004105
X002885Y018333
X030444Y002333
X005444Y018333
X027885Y002333
X002885Y002333
X027885Y004105
X027885Y018333
T103
X007944Y014833
X007944Y007833
T104
X023444Y019333
X010444Y018348
X023444Y003333
X010444Y003333
X010444Y002349
X010444Y019333
X023444Y002349
X023444Y018348
T105
X013560Y006502
X021240Y009862
T106
X009048Y012632
X009048Y010034
T00
M30
