G04 MADE WITH FRITZING*
G04 WWW.FRITZING.ORG*
G04 DOUBLE SIDED*
G04 HOLES PLATED*
G04 CONTOUR ON CENTER OF CONTOUR VECTOR*
%ASAXBY*%
%FSLAX23Y23*%
%MOIN*%
%OFA0B0*%
%SFA1.0B1.0*%
%ADD10C,0.095000*%
%ADD11C,0.149999*%
%ADD12C,0.051496*%
%ADD13C,0.070000*%
%ADD14R,0.095000X0.095000*%
%ADD15R,0.106299X0.070866*%
%ADD16R,0.001000X0.001000*%
%LNPASTEMASK1*%
G90*
G70*
G54D10*
X795Y992D03*
G54D11*
X794Y1483D03*
G54D12*
X905Y1003D03*
G54D13*
X2444Y733D03*
G54D11*
X794Y783D03*
G54D12*
X905Y1263D03*
G54D10*
X795Y1275D03*
G54D14*
X795Y992D03*
X795Y1275D03*
G54D15*
X344Y560D03*
X344Y733D03*
X2944Y560D03*
X2944Y733D03*
X2944Y1633D03*
X2944Y1460D03*
X344Y1633D03*
X344Y1460D03*
G54D16*
X884Y1305D02*
X924Y1305D01*
X884Y1304D02*
X925Y1304D01*
X884Y1303D02*
X925Y1303D01*
X884Y1302D02*
X925Y1302D01*
X884Y1301D02*
X925Y1301D01*
X884Y1300D02*
X925Y1300D01*
X884Y1299D02*
X925Y1299D01*
X884Y1298D02*
X925Y1298D01*
X884Y1297D02*
X925Y1297D01*
X884Y1296D02*
X925Y1296D01*
X884Y1295D02*
X925Y1295D01*
X884Y1294D02*
X925Y1294D01*
X884Y1293D02*
X925Y1293D01*
X884Y1292D02*
X925Y1292D01*
X884Y1291D02*
X925Y1291D01*
X884Y1290D02*
X925Y1290D01*
X884Y1289D02*
X925Y1289D01*
X884Y1288D02*
X925Y1288D01*
X884Y1287D02*
X925Y1287D01*
X884Y1286D02*
X925Y1286D01*
X884Y1285D02*
X925Y1285D01*
X884Y1284D02*
X900Y1284D01*
X909Y1284D02*
X925Y1284D01*
X884Y1283D02*
X897Y1283D01*
X912Y1283D02*
X925Y1283D01*
X884Y1282D02*
X894Y1282D01*
X914Y1282D02*
X925Y1282D01*
X884Y1281D02*
X893Y1281D01*
X916Y1281D02*
X925Y1281D01*
X884Y1280D02*
X891Y1280D01*
X917Y1280D02*
X925Y1280D01*
X884Y1279D02*
X890Y1279D01*
X919Y1279D02*
X925Y1279D01*
X884Y1278D02*
X889Y1278D01*
X920Y1278D02*
X925Y1278D01*
X884Y1277D02*
X888Y1277D01*
X921Y1277D02*
X925Y1277D01*
X884Y1276D02*
X887Y1276D01*
X921Y1276D02*
X925Y1276D01*
X884Y1275D02*
X886Y1275D01*
X922Y1275D02*
X925Y1275D01*
X884Y1274D02*
X886Y1274D01*
X923Y1274D02*
X925Y1274D01*
X884Y1273D02*
X885Y1273D01*
X923Y1273D02*
X925Y1273D01*
X884Y1272D02*
X885Y1272D01*
X924Y1272D02*
X925Y1272D01*
X884Y1271D02*
X884Y1271D01*
X924Y1271D02*
X925Y1271D01*
X884Y1270D02*
X884Y1270D01*
X924Y1270D02*
X925Y1270D01*
X884Y1269D02*
X884Y1269D01*
X925Y1269D02*
X925Y1269D01*
X884Y1259D02*
X884Y1259D01*
X925Y1259D02*
X925Y1259D01*
X884Y1258D02*
X884Y1258D01*
X925Y1258D02*
X925Y1258D01*
X884Y1257D02*
X884Y1257D01*
X924Y1257D02*
X925Y1257D01*
X884Y1256D02*
X885Y1256D01*
X924Y1256D02*
X925Y1256D01*
X884Y1255D02*
X885Y1255D01*
X924Y1255D02*
X925Y1255D01*
X884Y1254D02*
X886Y1254D01*
X923Y1254D02*
X925Y1254D01*
X884Y1253D02*
X886Y1253D01*
X923Y1253D02*
X925Y1253D01*
X884Y1252D02*
X887Y1252D01*
X922Y1252D02*
X925Y1252D01*
X884Y1251D02*
X887Y1251D01*
X921Y1251D02*
X925Y1251D01*
X884Y1250D02*
X888Y1250D01*
X920Y1250D02*
X925Y1250D01*
X884Y1249D02*
X889Y1249D01*
X919Y1249D02*
X925Y1249D01*
X884Y1248D02*
X890Y1248D01*
X918Y1248D02*
X925Y1248D01*
X884Y1247D02*
X891Y1247D01*
X917Y1247D02*
X925Y1247D01*
X884Y1246D02*
X893Y1246D01*
X916Y1246D02*
X925Y1246D01*
X884Y1245D02*
X895Y1245D01*
X914Y1245D02*
X925Y1245D01*
X884Y1244D02*
X897Y1244D01*
X911Y1244D02*
X925Y1244D01*
X884Y1243D02*
X899Y1243D01*
X909Y1243D02*
X924Y1243D01*
X884Y1024D02*
X899Y1024D01*
X909Y1024D02*
X925Y1024D01*
X884Y1023D02*
X896Y1023D01*
X913Y1023D02*
X925Y1023D01*
X884Y1022D02*
X894Y1022D01*
X915Y1022D02*
X925Y1022D01*
X884Y1021D02*
X892Y1021D01*
X916Y1021D02*
X925Y1021D01*
X884Y1020D02*
X891Y1020D01*
X918Y1020D02*
X925Y1020D01*
X884Y1019D02*
X890Y1019D01*
X919Y1019D02*
X925Y1019D01*
X884Y1018D02*
X889Y1018D01*
X920Y1018D02*
X925Y1018D01*
X884Y1017D02*
X888Y1017D01*
X921Y1017D02*
X925Y1017D01*
X884Y1016D02*
X887Y1016D01*
X922Y1016D02*
X925Y1016D01*
X884Y1015D02*
X886Y1015D01*
X922Y1015D02*
X925Y1015D01*
X884Y1014D02*
X886Y1014D01*
X923Y1014D02*
X925Y1014D01*
X884Y1013D02*
X885Y1013D01*
X923Y1013D02*
X925Y1013D01*
X884Y1012D02*
X885Y1012D01*
X924Y1012D02*
X925Y1012D01*
X884Y1011D02*
X884Y1011D01*
X924Y1011D02*
X925Y1011D01*
X884Y1010D02*
X884Y1010D01*
X924Y1010D02*
X925Y1010D01*
X884Y1009D02*
X884Y1009D01*
X925Y1009D02*
X925Y1009D01*
X884Y999D02*
X884Y999D01*
X925Y999D02*
X925Y999D01*
X884Y998D02*
X884Y998D01*
X925Y998D02*
X925Y998D01*
X884Y997D02*
X884Y997D01*
X924Y997D02*
X925Y997D01*
X884Y996D02*
X885Y996D01*
X924Y996D02*
X925Y996D01*
X884Y995D02*
X885Y995D01*
X924Y995D02*
X925Y995D01*
X884Y994D02*
X886Y994D01*
X923Y994D02*
X925Y994D01*
X884Y993D02*
X886Y993D01*
X922Y993D02*
X925Y993D01*
X884Y992D02*
X887Y992D01*
X922Y992D02*
X925Y992D01*
X884Y991D02*
X888Y991D01*
X921Y991D02*
X925Y991D01*
X884Y990D02*
X888Y990D01*
X920Y990D02*
X925Y990D01*
X884Y989D02*
X889Y989D01*
X919Y989D02*
X925Y989D01*
X884Y988D02*
X891Y988D01*
X918Y988D02*
X925Y988D01*
X884Y987D02*
X892Y987D01*
X917Y987D02*
X925Y987D01*
X884Y986D02*
X893Y986D01*
X915Y986D02*
X925Y986D01*
X884Y985D02*
X895Y985D01*
X913Y985D02*
X925Y985D01*
X884Y984D02*
X898Y984D01*
X911Y984D02*
X925Y984D01*
X884Y983D02*
X925Y983D01*
X884Y982D02*
X925Y982D01*
X884Y981D02*
X925Y981D01*
X884Y980D02*
X925Y980D01*
X884Y979D02*
X925Y979D01*
X884Y978D02*
X925Y978D01*
X884Y977D02*
X925Y977D01*
X884Y976D02*
X925Y976D01*
X884Y975D02*
X925Y975D01*
X884Y974D02*
X925Y974D01*
X884Y973D02*
X925Y973D01*
X884Y972D02*
X925Y972D01*
X884Y971D02*
X925Y971D01*
X884Y970D02*
X925Y970D01*
X884Y969D02*
X925Y969D01*
X884Y968D02*
X925Y968D01*
X884Y967D02*
X925Y967D01*
X884Y966D02*
X925Y966D01*
X884Y965D02*
X925Y965D01*
X884Y964D02*
X925Y964D01*
X884Y963D02*
X925Y963D01*
D02*
G04 End of PasteMask1*
M02*