 <svg version="1.0" xmlns="http://www.w3.org/2000/svg" width="700.000000pt" height="998.000000pt" viewBox="0 0 700.000000 998.000000" preserveAspectRatio="xMidYMid meet">
<metadata>
Created by potrace 1.12, written by Peter Selinger 2001-2015
</metadata>
<g transform="translate(0.000000,998.000000) scale(0.100000,-0.100000)" fill="#000000" stroke="none">
<path d="M3421 9960 c-13 -11 -31 -20 -40 -20 -32 -1 -94 -49 -131 -102 -53
-76 -62 -129 -69 -405 -3 -133 -10 -245 -14 -250 -5 -4 -52 -13 -105 -20 -97
-12 -168 -25 -252 -45 -25 -6 -63 -15 -85 -20 -22 -5 -53 -14 -70 -20 -16 -5
-50 -16 -75 -23 -65 -19 -110 -35 -156 -56 -23 -11 -47 -19 -54 -19 -6 0 -24
-7 -38 -15 -15 -8 -54 -26 -87 -41 -107 -49 -297 -165 -415 -253 -147 -110
-385 -345 -482 -476 -4 -5 -26 -33 -48 -62 -22 -29 -40 -55 -40 -58 0 -3 -15
-27 -33 -53 -18 -26 -38 -58 -45 -72 -7 -14 -23 -43 -36 -65 -34 -57 -99 -189
-130 -265 -15 -36 -31 -74 -36 -85 -14 -30 -40 -104 -54 -155 -7 -25 -18 -56
-25 -67 -6 -12 -11 -30 -11 -40 0 -45 -18 -52 -151 -57 -130 -4 -160 -13 -219
-61 -26 -21 -70 -79 -70 -91 0 -4 -8 -25 -19 -48 -27 -61 -49 -134 -60 -204
-5 -34 -13 -66 -16 -72 -3 -5 -13 -73 -21 -152 -9 -79 -20 -174 -24 -213 -12
-97 -11 -843 1 -935 5 -41 14 -122 19 -180 6 -58 15 -125 21 -150 6 -25 14
-70 19 -100 10 -65 35 -149 61 -206 11 -23 19 -45 19 -49 0 -19 73 -95 114
-119 44 -26 47 -26 248 -26 237 0 248 -3 261 -70 5 -25 15 -54 23 -65 8 -10
14 -30 14 -42 0 -12 7 -41 16 -63 21 -53 10 -76 -58 -120 -28 -18 -62 -53 -79
-79 l-29 -46 0 -296 c0 -225 -3 -299 -13 -307 -8 -6 -48 -7 -112 -1 -55 4
-181 8 -280 8 -158 0 -185 -2 -220 -19 -22 -11 -46 -19 -53 -20 -19 0 -113
-68 -150 -108 -38 -42 -92 -146 -92 -177 0 -12 -9 -34 -20 -48 -26 -33 -29
-170 -4 -198 10 -11 20 -49 25 -94 4 -43 13 -82 18 -89 5 -6 12 -29 16 -51 4
-22 13 -49 20 -60 7 -11 16 -36 20 -55 4 -19 14 -44 21 -55 8 -11 14 -26 14
-35 1 -8 9 -33 20 -55 11 -22 19 -45 20 -51 0 -11 21 -65 54 -139 7 -16 23
-54 35 -82 11 -29 31 -77 42 -105 12 -29 27 -66 34 -83 11 -28 36 -85 70 -160
8 -16 26 -59 40 -95 15 -36 36 -85 47 -110 11 -25 26 -58 33 -75 7 -16 29 -65
49 -108 20 -42 36 -79 36 -82 0 -14 185 -390 226 -460 13 -22 26 -47 30 -55
29 -60 196 -244 313 -344 86 -73 276 -187 396 -236 11 -4 40 -17 65 -27 89
-38 193 -70 300 -94 25 -6 68 -16 95 -24 28 -8 84 -17 125 -20 41 -4 91 -11
110 -16 19 -5 118 -14 220 -19 102 -6 199 -15 215 -20 17 -6 115 -14 219 -19
147 -8 192 -13 205 -25 26 -24 698 -24 715 -1 9 12 52 17 201 25 105 6 206 15
225 20 19 5 117 14 216 20 100 6 195 14 210 19 16 5 62 12 102 15 40 4 99 13
130 20 31 8 77 19 102 25 82 18 135 33 165 47 17 7 44 16 60 20 17 4 39 13 50
20 11 8 26 14 35 14 8 0 32 9 53 20 20 11 41 20 46 20 12 0 193 104 256 148
57 40 186 144 222 180 36 36 173 208 173 217 0 5 6 16 14 24 8 9 28 43 45 76
18 33 36 67 40 75 5 8 35 69 66 135 31 66 65 138 75 160 42 89 90 196 90 201
0 3 18 43 40 90 22 47 40 91 40 98 0 8 7 19 15 26 8 7 15 19 15 26 0 7 9 33
19 56 11 24 29 66 41 93 11 28 28 63 35 78 8 16 15 33 15 39 0 6 8 29 19 52
10 23 29 66 41 96 12 30 29 67 36 82 8 14 14 32 14 38 0 7 9 31 19 54 11 23
29 68 42 101 12 33 27 74 34 90 45 106 95 272 95 310 0 40 19 105 30 105 6 0
10 52 10 123 0 110 -2 124 -20 140 -11 9 -20 24 -20 33 0 42 -100 163 -175
212 -22 14 -69 36 -105 49 -58 20 -83 23 -230 23 -91 -1 -210 -5 -265 -10 -59
-5 -106 -5 -116 1 -16 8 -18 39 -21 312 l-3 304 -28 40 c-15 22 -47 55 -72 73
-52 39 -53 49 -29 155 24 106 47 176 62 191 10 11 57 14 208 14 188 0 196 1
232 24 21 13 52 40 69 59 38 43 103 177 103 210 0 14 7 44 16 68 8 24 20 80
25 124 5 44 14 96 20 115 42 155 42 1245 0 1400 -6 19 -15 74 -21 122 -6 48
-17 105 -25 129 -8 23 -15 50 -15 60 0 10 -9 38 -19 61 -11 24 -22 50 -26 58
-23 57 -75 118 -125 146 -40 23 -59 27 -159 30 -126 3 -137 8 -151 65 -10 38
-37 118 -56 164 -6 17 -22 55 -34 85 -47 114 -157 328 -186 361 -8 8 -14 18
-14 22 0 12 -112 170 -185 262 -112 141 -348 372 -469 460 -22 16 -43 32 -46
35 -4 5 -112 76 -205 135 -55 35 -251 137 -310 160 -16 7 -46 20 -65 28 -41
19 -110 44 -160 58 -19 6 -44 14 -55 20 -20 10 -99 31 -185 50 -25 6 -65 15
-90 20 -25 6 -74 15 -110 20 -97 14 -107 17 -115 36 -4 10 -6 122 -6 250 2
212 0 238 -20 303 -18 59 -30 80 -75 125 -37 36 -68 58 -95 65 -22 6 -43 18
-46 26 -9 23 -132 19 -162 -6z m404 -1135 c44 -8 102 -17 128 -20 26 -4 63
-13 82 -21 19 -8 47 -14 62 -14 15 -1 46 -8 68 -16 22 -9 58 -20 80 -25 22 -6
44 -14 50 -20 5 -5 16 -9 25 -9 8 0 32 -9 53 -20 20 -11 45 -20 56 -20 10 0
24 -7 31 -15 7 -8 27 -17 46 -21 19 -3 37 -10 40 -15 3 -5 20 -16 37 -24 114
-53 264 -149 399 -257 115 -92 314 -289 379 -376 23 -31 61 -82 84 -112 39
-52 125 -187 125 -195 0 -2 13 -26 28 -52 16 -27 50 -98 76 -158 26 -61 54
-123 62 -138 8 -16 14 -36 14 -45 1 -9 9 -35 20 -57 11 -22 19 -50 20 -63 0
-12 6 -38 14 -57 8 -19 18 -56 22 -82 8 -60 33 -123 48 -124 6 0 82 0 168 1
91 1 165 -3 176 -9 23 -12 52 -80 52 -121 0 -16 6 -47 14 -67 8 -21 20 -96 26
-168 7 -71 16 -168 20 -215 12 -118 11 -644 0 -765 -24 -248 -39 -362 -49
-388 -6 -16 -11 -43 -11 -60 -1 -46 -35 -117 -57 -117 -10 -1 -128 -1 -263 0
-135 0 -250 -3 -256 -7 -14 -10 -64 -198 -90 -340 -7 -40 -18 -81 -23 -92 -6
-11 -11 -32 -11 -48 0 -15 -8 -57 -19 -93 -19 -64 -32 -114 -57 -220 -7 -30
-16 -65 -19 -77 -6 -18 0 -25 32 -41 21 -11 58 -22 83 -26 25 -4 62 -18 83
-32 l37 -24 0 -183 c0 -185 -6 -221 -40 -237 -15 -8 -55 -19 -155 -43 l-50
-12 0 -229 0 -228 40 -14 c80 -29 191 -57 242 -61 41 -4 63 0 99 19 54 26 110
87 119 128 12 56 32 60 312 70 141 5 269 6 285 3 16 -3 40 -20 54 -37 26 -29
26 -34 20 -118 -4 -48 -13 -103 -21 -122 -8 -20 -15 -45 -15 -56 0 -11 -9 -37
-20 -57 -11 -21 -20 -44 -20 -53 0 -13 -31 -97 -90 -240 -10 -25 -28 -70 -40
-100 -12 -30 -27 -68 -35 -85 -7 -16 -23 -55 -35 -85 -12 -30 -28 -68 -35 -85
-7 -16 -23 -52 -35 -80 -12 -27 -30 -69 -41 -93 -10 -23 -19 -49 -19 -56 0 -7
-6 -19 -14 -25 -8 -7 -17 -24 -21 -39 -3 -15 -17 -49 -30 -77 -30 -65 -94
-207 -136 -300 -14 -33 -150 -308 -198 -403 -14 -28 -110 -149 -148 -188 -25
-25 -119 -102 -153 -124 -12 -8 -32 -23 -45 -32 -35 -27 -258 -138 -277 -138
-9 0 -19 -4 -22 -9 -9 -14 -219 -75 -316 -92 -30 -5 -73 -14 -95 -19 -22 -6
-112 -15 -200 -20 -88 -6 -173 -15 -190 -20 -16 -5 -119 -14 -229 -20 -109 -6
-207 -15 -217 -20 -24 -13 -854 -13 -879 0 -10 5 -105 14 -211 20 -107 5 -209
14 -227 19 -18 6 -88 13 -155 16 -122 6 -249 24 -362 51 -33 8 -78 19 -100 23
-41 8 -154 45 -190 61 -11 5 -45 19 -75 31 -46 19 -136 68 -225 122 -81 49
-290 249 -304 290 -2 7 -18 32 -35 57 -34 49 -119 220 -206 415 -10 22 -35 76
-55 120 -20 44 -43 94 -50 110 -7 17 -23 51 -34 78 -31 70 -55 125 -81 187
-13 30 -32 75 -43 100 -11 25 -26 59 -33 75 -6 17 -22 55 -34 85 -12 30 -30
73 -40 95 -21 49 -85 210 -112 285 -11 30 -26 69 -34 85 -7 17 -16 44 -20 60
-4 17 -10 35 -15 40 -7 10 -22 70 -50 205 -5 25 -7 56 -4 69 9 36 44 81 71 91
31 12 547 -5 573 -20 12 -6 24 -23 27 -38 4 -15 12 -33 17 -41 6 -7 16 -22 22
-34 5 -11 33 -34 60 -50 67 -40 139 -46 219 -18 33 12 67 21 76 21 22 0 110
38 110 48 1 37 1 430 1 439 -1 6 -20 14 -42 18 -23 4 -57 14 -75 21 -18 8 -44
14 -58 14 -50 0 -56 26 -56 242 l0 198 33 20 c17 11 48 23 67 26 72 11 200 49
200 59 -1 6 -7 19 -15 29 -8 11 -15 28 -15 38 0 10 -9 35 -20 55 -11 21 -20
45 -20 55 0 9 -6 29 -14 45 -8 15 -24 62 -37 103 -20 68 -31 100 -69 210 -6
19 -17 60 -24 90 -7 30 -18 65 -24 77 -7 12 -12 34 -12 50 0 32 -35 113 -53
125 -7 5 -129 8 -272 7 -143 0 -268 3 -278 6 -9 4 -20 19 -22 34 -3 14 -12 49
-20 76 -9 28 -20 86 -25 130 -5 44 -14 109 -21 145 -16 85 -16 1039 0 1120 6
30 15 93 21 140 6 47 17 108 25 135 8 28 17 62 20 77 8 40 47 48 235 48 191 0
193 1 204 84 3 26 12 69 20 95 8 25 24 80 37 121 22 77 30 100 68 205 52 140
168 367 258 503 133 200 351 423 544 557 62 43 225 137 284 164 28 12 68 31
90 41 22 10 67 29 100 41 33 12 75 28 93 35 18 8 40 14 49 14 9 0 46 9 82 19
109 32 152 41 253 56 53 7 107 17 120 21 76 24 511 23 653 -1z"></path>
<path d="M3397 7859 c-7 -4 -57 -10 -112 -13 -94 -6 -242 -34 -310 -57 -16 -6
-50 -16 -75 -21 -25 -6 -54 -17 -65 -24 -11 -8 -26 -14 -34 -14 -17 0 -109
-42 -239 -109 -135 -70 -327 -218 -457 -352 -83 -86 -225 -259 -225 -274 0 -2
-13 -24 -29 -47 -35 -52 -151 -275 -151 -290 0 -6 -8 -29 -19 -52 -26 -59 -42
-104 -52 -156 -5 -25 -15 -65 -23 -90 -45 -140 -70 -498 -46 -645 4 -27 13
-86 20 -130 15 -104 78 -331 107 -385 7 -14 13 -30 13 -36 0 -16 116 -239 158
-304 127 -196 297 -376 497 -528 41 -31 159 -106 195 -124 14 -6 32 -17 40
-23 17 -13 195 -91 225 -99 11 -2 52 -16 90 -31 39 -14 102 -32 140 -41 39 -8
88 -19 110 -23 22 -5 112 -15 200 -22 139 -11 183 -10 340 4 99 10 198 24 220
32 22 8 53 14 68 15 15 0 40 6 55 14 15 8 46 18 67 22 22 4 49 13 60 20 11 8
26 14 34 14 24 0 251 110 336 163 235 147 454 362 610 601 61 94 155 275 155
298 0 8 6 22 14 33 7 11 18 36 24 55 6 19 15 49 21 65 21 61 50 172 61 235 7
36 16 85 20 110 5 25 9 142 9 260 0 118 -4 235 -9 260 -4 25 -13 74 -20 110
-11 63 -40 173 -61 235 -6 17 -17 51 -25 77 -8 26 -19 50 -24 53 -6 3 -10 13
-10 21 0 13 -56 132 -102 214 -114 209 -333 454 -543 608 -32 24 -184 121
-207 133 -109 56 -226 109 -239 109 -6 0 -25 6 -42 14 -37 16 -137 46 -252 74
-115 29 -486 58 -518 41z m406 -292 c195 -36 331 -85 528 -189 55 -29 204
-134 252 -177 29 -26 66 -58 84 -72 17 -15 66 -66 108 -115 66 -77 100 -124
184 -254 35 -54 112 -224 140 -308 57 -172 81 -330 81 -535 0 -249 -38 -461
-111 -623 -11 -23 -19 -48 -19 -56 0 -9 -7 -21 -15 -28 -8 -7 -15 -17 -15 -23
0 -19 -45 -102 -98 -180 -81 -120 -93 -137 -149 -196 -29 -31 -55 -64 -59 -73
-3 -10 -8 -18 -12 -18 -4 0 -25 -16 -47 -36 -128 -116 -228 -188 -350 -253
-33 -18 -64 -36 -70 -42 -5 -5 -16 -9 -25 -9 -8 0 -32 -9 -53 -20 -20 -11 -43
-20 -49 -20 -7 -1 -31 -9 -53 -20 -22 -11 -48 -19 -59 -20 -10 0 -39 -7 -65
-15 -242 -78 -624 -72 -911 14 -195 58 -434 183 -575 301 -116 97 -284 284
-350 389 -6 9 -23 35 -38 59 -15 24 -32 53 -37 65 -6 12 -14 29 -19 37 -10 15
-30 61 -68 155 -20 47 -46 135 -72 235 -46 177 -46 563 0 740 38 147 64 226
110 326 11 23 19 44 19 47 0 10 109 189 149 245 141 196 369 394 584 505 70
37 270 117 291 117 7 0 29 6 47 14 19 8 70 19 113 26 44 7 89 16 100 20 36 16
431 6 529 -13z"></path>
<path d="M3325 7431 c-319 -35 -645 -190 -886 -423 -63 -61 -219 -248 -219
-263 0 -4 -9 -19 -20 -34 -48 -69 -170 -347 -170 -390 0 -10 -6 -36 -14 -57
-21 -62 -40 -239 -39 -364 3 -311 82 -573 254 -835 85 -131 232 -291 329 -358
117 -81 205 -137 216 -137 6 0 17 -6 23 -14 7 -8 25 -18 41 -21 16 -3 34 -13
41 -21 6 -8 21 -14 33 -14 12 0 30 -6 41 -13 21 -14 115 -44 225 -72 248 -62
649 -29 877 71 17 8 38 14 46 14 8 0 20 6 26 14 7 8 26 18 42 21 16 4 31 11
35 16 3 5 20 16 37 24 98 47 292 194 361 274 12 14 38 43 59 65 20 23 63 79
95 126 78 117 80 121 97 157 8 17 19 34 25 38 5 3 10 13 10 22 0 9 9 34 19 57
111 237 150 568 101 856 -19 115 -26 140 -61 235 -11 28 -19 55 -19 60 0 13
-32 81 -89 187 -33 62 -133 205 -178 255 -15 17 -40 44 -54 60 -71 79 -179
166 -302 245 -48 30 -200 108 -212 108 -4 0 -26 8 -49 19 -47 21 -115 42 -236
71 -95 23 -361 34 -485 21z m423 -227 c173 -43 332 -100 332 -119 0 -18 -31
-41 -74 -55 -42 -13 -112 -77 -355 -322 -73 -74 -134 -128 -145 -128 -12 0
-106 86 -240 219 -185 183 -228 221 -263 230 -22 6 -52 20 -65 30 -34 28 -23
37 102 81 19 7 50 19 68 26 18 8 51 17 75 20 23 3 60 12 82 20 61 20 397 19
483 -2z m-797 -332 c51 -34 419 -410 419 -428 0 -21 -381 -404 -402 -404 -7 0
-104 92 -216 204 -235 235 -251 261 -224 348 13 41 37 69 143 173 l127 125 64
0 c43 0 71 -6 89 -18z m1380 -99 c158 -154 181 -199 144 -287 -17 -40 -415
-446 -437 -446 -22 0 -398 383 -398 405 0 20 365 393 420 429 16 10 46 16 87
16 l63 0 121 -117z m-1951 -351 c24 -57 50 -87 243 -280 120 -120 217 -223
217 -231 0 -8 -97 -110 -215 -229 -205 -205 -223 -227 -263 -324 -22 -54 -38
-36 -101 119 -12 28 -21 60 -21 70 0 9 -7 35 -15 58 -8 22 -21 100 -29 174
-12 116 -12 152 1 265 7 72 20 149 28 171 7 22 16 58 20 80 4 22 10 45 15 50
4 6 11 21 15 35 13 49 50 110 64 108 8 -2 26 -32 41 -66z m2318 36 c65 -110
122 -369 122 -551 -1 -236 -105 -597 -165 -573 -8 3 -15 15 -15 26 0 50 -57
121 -260 325 -115 116 -210 218 -210 226 0 8 95 109 210 224 159 159 217 223
235 262 14 28 25 58 25 66 0 38 33 35 58 -5z m-980 -342 c105 -106 192 -198
192 -204 0 -6 -88 -99 -195 -207 -165 -166 -199 -196 -218 -191 -26 7 -397
378 -397 397 0 23 383 399 405 399 12 0 95 -75 213 -194z m-540 -529 c105
-106 192 -200 192 -210 0 -17 -361 -384 -418 -424 -23 -17 -45 -23 -86 -23
-48 0 -60 4 -103 39 -26 21 -86 77 -132 124 -65 66 -87 96 -101 137 -29 86
-18 103 219 343 113 114 213 207 221 207 8 0 102 -87 208 -193z m1077 -9 c240
-240 259 -271 220 -366 -17 -39 -146 -176 -228 -243 -44 -35 -54 -39 -106 -39
-44 0 -64 5 -88 23 -68 50 -413 402 -413 422 0 22 376 405 398 405 8 0 105
-91 217 -202z m-510 -557 c200 -198 226 -221 269 -232 52 -13 76 -40 55 -65
-6 -8 -18 -14 -25 -14 -7 0 -33 -8 -56 -19 -66 -29 -105 -40 -218 -67 -89 -20
-130 -24 -277 -24 -98 0 -184 5 -200 11 -15 6 -53 15 -83 21 -58 10 -154 40
-205 62 -16 8 -40 17 -52 21 -25 7 -31 36 -10 53 6 5 32 15 57 22 39 10 73 40
265 231 133 132 228 219 239 219 12 0 104 -84 241 -219z"></path>
<path d="M3642 2363 c-11 -16 -24 -44 -30 -63 -16 -53 -41 -121 -57 -157 -8
-17 -15 -35 -15 -39 0 -8 -30 -89 -55 -149 -7 -16 -22 -56 -33 -88 -12 -31
-31 -83 -42 -115 -12 -31 -27 -73 -35 -92 -7 -19 -22 -61 -34 -92 -11 -32 -30
-84 -42 -115 -12 -32 -27 -71 -34 -88 -45 -109 -54 -139 -45 -150 5 -6 46 -12
95 -14 83 -2 86 -1 115 28 17 16 30 40 30 53 0 13 6 32 14 43 7 11 18 36 24
55 16 53 41 121 57 157 8 17 15 37 15 45 1 7 9 31 20 53 11 22 19 46 20 53 0
8 6 26 14 40 7 15 23 53 34 85 12 31 30 81 42 110 11 29 20 56 20 61 0 4 6 22
14 39 26 62 56 142 56 152 1 6 9 28 20 50 11 22 19 46 20 53 0 7 8 29 19 50
29 58 22 62 -89 62 -96 0 -99 -1 -118 -27z"></path>
<path d="M3950 2136 l0 -95 128 -61 c336 -163 379 -188 350 -206 -25 -16 -273
-124 -284 -124 -6 0 -17 -7 -24 -15 -7 -8 -19 -15 -27 -15 -7 0 -43 -14 -78
-30 l-65 -30 0 -95 c0 -52 3 -95 7 -95 4 0 41 16 82 36 107 51 145 68 236 110
44 20 100 45 125 57 25 11 52 24 60 29 8 4 22 11 30 14 8 4 51 23 95 44 44 20
90 40 101 44 33 10 47 95 22 129 -13 17 -83 56 -263 148 -55 28 -140 72 -190
98 -178 94 -290 151 -297 151 -5 0 -8 -42 -8 -94z"></path>
<path d="M3014 2181 c-43 -22 -90 -45 -104 -51 -14 -6 -43 -21 -65 -34 -22
-13 -117 -63 -212 -112 -300 -155 -275 -136 -271 -209 2 -39 8 -61 18 -66 23
-12 177 -84 245 -114 33 -15 87 -40 120 -55 33 -15 83 -38 110 -50 28 -12 73
-33 100 -47 52 -26 145 -63 158 -63 4 0 7 35 7 78 0 75 -15 122 -40 122 -5 0
-42 16 -83 35 -41 19 -76 35 -80 35 -3 0 -44 18 -91 40 -47 22 -88 40 -93 40
-22 0 -93 47 -91 59 3 13 91 68 138 87 34 14 316 157 328 167 16 12 13 169 -4
174 -5 2 -46 -15 -90 -36z"></path>
</g>
</svg>